<svg xmlns="http://www.w3.org/2000/svg" xmlns:svg="http://www.w3.org/2000/svg" id="svg2" width="84" height="84" version="1.1" viewBox="0 0 84 84"><metadata id="metadata7"/><g id="layer1" transform="translate(0,-968.36216)"><rect id="rect4136" width="84" height="84" x="0" y="968.362" fill="#a0f5ff" fill-opacity="1" stroke="none" stroke-dasharray="none" stroke-miterlimit="4" stroke-opacity=".194" stroke-width="4" opacity="1"/><g id="g4200" fill="#000" transform="matrix(2.452153,0.7152715,-0.7152715,2.452153,21.157422,972.35307)"><path id="path4190" fill="#087fff" fill-opacity="1" d="M 16,1 8,1 C 6.34,1 5,2.34 5,4 l 0,16 c 0,1.66 1.34,3 3,3 l 8,0 c 1.66,0 3,-1.34 3,-3 L 19,4 C 19,2.34 17.66,1 16,1 Z m -2,20 -4,0 0,-1 4,0 0,1 z m 3.25,-3 -10.5,0 0,-14 10.5,0 0,14 z"/><path id="path4192" fill="none" d="M 0,0 24,0 24,24 0,24 Z"/></g></g></svg>